<!-- Generated by IcoMoon.io -->
<svg version="1.1" xmlns="http://www.w3.org/2000/svg" width="1024" height="1024" viewBox="0 0 1024 1024">
<g id="icomoon-ignore">
</g>
<path fill="#6e1013" d="M194.662 589.323h537.88l-164.696 197.653c-16.048 19.219-13.418 47.827 5.803 63.827 19.267 16.051 47.827 13.421 63.875-5.798l226.669-272.002c1.766-2.131 2.624-4.624 3.942-6.981 1.088-1.904 2.4-3.536 3.219-5.622 2.042-5.213 3.264-10.698 3.264-16.229 0-0.045 0.045-0.136 0.045-0.181s-0.045-0.136-0.045-0.182c0-5.53-1.222-11.016-3.264-16.229-0.819-2.085-2.131-3.717-3.219-5.621-1.318-2.358-2.176-4.851-3.942-6.982l-226.669-272c-9.021-10.744-21.896-16.32-34.861-16.32-10.245 0-20.536 3.446-29.013 10.518-19.221 16.003-21.851 44.608-5.803 63.829l164.696 197.653h-537.88c-25.024 0-45.334 20.31-45.334 45.334s20.309 45.333 45.334 45.333z"></path>
</svg>
